HIERARCHY
ROOT Hip
{
    OFFSET 0.0 0.0 0.0
    CHANNELS 6 Xposition Yposition Zposition Zrotation Xrotation Yrotation
    JOINT RightHip
    {
        OFFSET -6.154644966125488 0.0 0.0
        CHANNELS 3 Zrotation Xrotation Yrotation
        JOINT RightKnee
        {
            OFFSET 0.0 0.0 -26.456573486328125
            CHANNELS 3 Zrotation Xrotation Yrotation
            JOINT RightAnkle
            {
                OFFSET 0.0 0.0 -30.483675003051758
                CHANNELS 3 Zrotation Xrotation Yrotation
                End Site
                {
                    OFFSET 0.0 -12.193470001220703 0.0
                }
            }
        }
    }
    JOINT LeftHip
    {
        OFFSET 6.154644966125488 0.0 0.0
        CHANNELS 3 Zrotation Xrotation Yrotation
        JOINT LeftKnee
        {
            OFFSET 0.0 0.0 -26.456573486328125
            CHANNELS 3 Zrotation Xrotation Yrotation
            JOINT LeftAnkle
            {
                OFFSET 0.0 0.0 -30.483675003051758
                CHANNELS 3 Zrotation Xrotation Yrotation
                End Site
                {
                    OFFSET 0.0 -12.193470001220703 0.0
                }
            }
        }
    }
    JOINT Spine
    {
        OFFSET 0.0 0.0 19.46894645690918
        CHANNELS 3 Zrotation Xrotation Yrotation
        JOINT Thorax
        {
            OFFSET 0.0 0.0 19.795303344726562
            CHANNELS 3 Zrotation Xrotation Yrotation
            JOINT Neck
            {
                OFFSET 0.0 0.0 11.703651428222656
                CHANNELS 3 Zrotation Xrotation Yrotation
                End Site
                {
                    OFFSET 0.0 0.0 4.681460857391357
                }
            }
            JOINT LeftShoulder
            {
                OFFSET 9.203409194946289 0.0 0.0
                CHANNELS 3 Zrotation Xrotation Yrotation
                JOINT LeftElbow
                {
                    OFFSET 24.42725944519043 0.0 0.0
                    CHANNELS 3 Zrotation Xrotation Yrotation
                    JOINT LeftWrist
                    {
                        OFFSET 14.680553436279297 0.0 0.0
                        CHANNELS 3 Zrotation Xrotation Yrotation
                        End Site
                        {
                            OFFSET 5.872220993041992 0.0 0.0
                        }
                    }
                }
            }
            JOINT RightShoulder
            {
                OFFSET -9.203409194946289 0.0 0.0
                CHANNELS 3 Zrotation Xrotation Yrotation
                JOINT RightElbow
                {
                    OFFSET -24.42725944519043 0.0 0.0
                    CHANNELS 3 Zrotation Xrotation Yrotation
                    JOINT RightWrist
                    {
                        OFFSET -14.680553436279297 0.0 0.0
                        CHANNELS 3 Zrotation Xrotation Yrotation
                        End Site
                        {
                            OFFSET -5.872220993041992 0.0 0.0
                        }
                    }
                }
            }
        }
    }
}
MOTION
Frames: 9
Frame Time: 0.03333333333333333
0.0 0.0 69.04319763183594 130.7607380728146 0.03438033085203947 1.619273969332251 5.089755461343078 -2.075194757235036 14.67991024183746 -8.147698896621996 34.13059932298153 -44.97836347838918 -6.361109362927032e-15 0.0 0.0 -30.386399766273787 -27.289574918281584 -1.551390739642151 45.037083775829146 36.01994576951751 -51.58739933375704 0.0 0.0 6.3611093629270335e-15 0.28034538357038546 3.3018252939877177 3.1583394585613918 10.193921591927472 -2.495293816417904e-07 -1.0338871856025099e-07 157.8703600964638 -19.580150962820195 7.71276795191136 -41.87449849878927 6.134971609548587 81.13562218145105 -72.76446514154588 -4.51600325120561e-06 -8.840565869549601e-06 3.1805546814635176e-15 -3.975693351829397e-16 1.1034765745125397e-32 64.3874414355601 21.348667712084072 -73.56397985019242 154.02458472940395 2.743157687114769e-06 4.75709859976674e-07 -1.590277340731758e-15 -6.361109362927033e-15 1.590277340731758e-15
0.0 0.0 69.04319763183594 134.4768877468425 0.22617698030876224 1.3876168801497841 4.382738576936665 -1.3300234677564196 14.05380685957228 -7.03880374471811 30.943003043766545 -45.56151366910118 1.7655625192200634e-31 -3.1805546814635168e-15 6.3611093629270335e-15 -27.913334263594617 -26.470971268811105 -0.37676195843008714 40.85416931203794 34.69693498600126 -49.08855882626391 0.0 0.0 0.0 0.28183814397948925 3.6827441602476263 3.0518520556230415 9.869624697603037 1.7171287382543357e-07 4.195836508519561e-10 157.4802857256449 -18.797854280815194 9.33642764457536 -41.66096848781193 6.8790172711704525 80.54245129677757 -74.52046616543807 3.725120274720345e-06 -2.615292143807251e-07 0.0 0.0 0.0 49.87177835906105 16.49670314392967 -70.45849569361647 156.7807884961405 -6.0496278953504e-06 -2.7319571931814255e-06 -3.180554681463516e-15 0.0 0.0
0.0 0.0 69.04319763183594 136.65889287885338 0.2772897283079867 1.5639418154378502 3.710619184291793 -0.9359117782879229 13.489830202240336 -6.3438083868820705 30.45543078253194 -46.29390964249855 0.0 0.0 0.0 -26.00959740168818 -25.2835125935968 -0.37214448057719374 37.729882791574944 33.518448673211715 -44.760408166169455 6.3611093629270335e-15 1.7655625192200634e-31 3.1805546814635168e-15 0.3645052540567661 3.9123155264370046 2.655025534306677 9.032894011598772 1.9206936566035639e-07 -2.3288358159479825e-08 137.16850941960575 -22.87779667553138 4.939717425893318 -39.89308066936763 7.291801964337935 79.97053858282318 -75.9270632012066 1.1462150086651084e-06 -2.8715672581667636e-06 3.1805546814635176e-15 -1.9878466759146985e-16 5.517382872562698e-33 5.03772198081429 -3.0828260165329846 -62.856563431538184 161.236093586645 2.7644210230425662e-06 1.4987765526848952e-06 6.3611093629270335e-15 2.2069531490250793e-32 3.975693351829396e-16
0.0 0.0 69.04319763183594 136.03705659034915 0.22629894311076043 1.6429280176292242 3.7012780132819096 -1.24738316274747 13.959456999167603 -6.296687784637379 31.35073112617502 -46.234079270774124 0.0 -3.1805546814635168e-15 0.0 -25.176016446274176 -25.516486666635736 -0.20198966806471172 37.18886796055427 34.11124689978168 -44.81054562989228 6.3611093629270335e-15 1.5902773407317584e-15 -8.827812596100317e-32 0.3193776239636552 3.9440746437468577 2.5992433035346645 9.780751295729672 8.076887774450673e-07 -1.2666367614230343e-07 134.99590834865646 -23.344298695089407 4.553014429848811 -40.04741876123612 6.915339049303765 80.3336831468387 -75.13615233233814 -3.5691544289987034e-06 8.093724144192283e-07 0.0 6.361109362927033e-15 0.0 4.703082426301496 -3.2786604391052894 -62.71823136533255 161.23481547716423 -2.9262499080472583e-06 -5.082566596317943e-06 -6.3611093629270335e-15 3.1805546814635168e-15 -2.9817700138720468e-15
0.0 0.0 69.04319763183594 140.40488214817196 0.17922869205828243 2.122840514752025 2.1380816412445265 -0.6305138588786633 11.93013588227249 -5.730165612046359 28.182709097700783 -42.45716053655031 8.827812596100317e-32 3.1805546814635164e-15 -3.1805546814635164e-15 -20.695649149445895 -25.274427097832007 1.9715399770972597 32.76269642559621 32.76550942890127 -42.6199945347022 -6.3611093629270335e-15 -1.5902773407317584e-15 -8.827812596100317e-32 0.4310584096961795 4.953412499642712 0.6999037985972992 7.987979184635435 -6.758102382111758e-08 1.1706906404196532e-07 117.45586760852476 -24.741065943101635 -0.6538645036278232 -25.773769369741768 3.114833733749724 83.2004644130158 -72.7489426379061 -1.6037304445408376e-06 -1.6346012971745104e-07 -3.1805546814635164e-15 -8.827812596100317e-32 3.1805546814635164e-15 -63.49367377635785 -29.798374198101452 -80.7445629830641 121.2999407599555 -2.947298455971721e-06 -1.9119728580034263e-06 3.1805546814635168e-15 0.0 0.0
0.0 0.0 69.04319763183594 143.44564061009171 -0.1128872526657027 3.954215260120478 1.21890643497487 1.208606649883281 4.6282682576218 -11.673610164013091 25.705322590754314 -27.04005504774438 -6.3611093629270335e-15 1.5902773407317584e-15 8.827812596100317e-32 -22.70102828519985 -23.73168095857374 -3.0988912537930036 33.8935706016561 33.56972858480637 -36.516090482041825 0.0 7.951386703658792e-16 0.0 0.6374806126208892 5.812297733213171 -1.5432671472442805 5.829079306663346 -2.2970187223748048e-08 7.134396873684265e-08 106.2554880018029 -25.11666845973582 -3.459555493626727 -11.883271606660372 2.141428625418886 86.38264928994296 -67.47377262556948 7.163669127014586e-07 2.0251513563527806e-06 3.1805546814635168e-15 -6.3611093629270335e-15 6.3611093629270335e-15 -65.9035216935996 -50.92683518049217 -79.60599755029801 74.95985804980242 -4.24641889276978e-06 -2.0600712799829187e-06 1.5902773407317584e-15 6.3611093629270335e-15 -8.827812596100317e-32
0.0 0.0 69.04319763183594 148.59454936604928 -0.23956460275727154 4.276088549694509 1.9338377543063805 -0.6115052625194178 1.0367231133793324 -12.317842179872704 22.638202779602402 -9.086945514398453 0.0 -3.1805546814635164e-15 0.0 -16.981489353583285 -18.6877172304529 -4.608570575020691 26.206040630263942 31.307161107954368 -25.16380026705748 0.0 0.0 0.0 0.8166364770572924 6.797410072639156 -3.5495163363664206 2.730336004488075 2.713439464543123e-07 2.3539822765923087e-07 87.22297039936494 -21.880257614358964 -9.87226746410666 6.1601202581095365 3.4387513116210955 89.46548445731885 -62.6620390349543 -3.4850180257152487e-06 1.5996914071760896e-07 -3.1805546814635168e-15 4.770832022195275e-15 1.3241718894150476e-31 -67.13101739954706 -62.59199984259213 -78.45900436069935 70.20932165098445 -3.5777363427958433e-06 -2.0391731845298746e-06 0.0 0.0 0.0
0.0 0.0 69.04319763183594 153.4575416757433 0.13897649382468058 4.633863597377017 3.9004304108702263 -4.512064531314428 -4.9406460946044115 -15.86777379295327 21.3761839679474 9.516685614787832 0.0 0.0 5.963540027744094e-16 -12.39844193054288 -12.940201102591303 -9.86371482261656 18.60799158789409 27.675758447936843 -12.094058223788496 3.1805546814635168e-15 -1.5902773407317584e-15 -1.5902773407317584e-15 0.8874303300169308 6.943266125121365 -5.443199587765373 -0.924335076055966 9.819211323353005e-08 4.735924909006539e-09 82.79832529795546 -23.048466876541717 -10.836306154190442 16.20571772872804 5.359317702043103 90.52835745169712 -54.91303424517792 -6.778582349322991e-07 1.1940384025448966e-06 3.1805546814635168e-15 1.5902773407317582e-15 -6.3611093629270335e-15 -75.45335009750885 -72.18168788256268 -84.4137098501247 50.7936262997507 1.11961881465602e-07 -5.222967906140247e-07 4.770832022195274e-15 -6.361109362927033e-15 3.1805546814635168e-15
0.0 0.0 69.04319763183594 158.2932953961466 0.8742673402909402 3.96455142448008 5.1428788551677584 -10.689014207436488 -5.706141072573325 -16.53737556160708 25.75445017431744 18.451166229862473 3.1805546814635168e-15 -3.1805546814635168e-15 8.827812596100317e-32 -6.950893869125955 -9.474635186130813 -15.597383572315852 9.930679251039392 25.404223334143012 -0.11131390646855703 0.0 0.0 0.0 0.7430474343887272 6.239293993372405 -6.097837991172239 -3.271975056861884 4.980553654330107e-07 5.816769968570697e-09 81.31670387016746 -24.32291403172747 -10.112139514630698 23.8450864252443 6.278135171695123 89.77873431363857 -51.598134375228895 -2.481194655946194e-06 3.234305841347517e-06 3.1805546814635168e-15 -1.7655625192200634e-31 -6.3611093629270335e-15 -82.09989233382049 -73.24445724157245 -89.2911936547286 41.71654806736387 8.016812443909351e-06 -3.9741802363287e-07 -3.975693351829396e-16 0.0 0.0
